Coordinates
version=1
nRows=9
nColumns=24
inDegrees=yes

Units are S.I. units (second, meters, Newtons, ...)
Angles are in degrees.

endheader
time	pelvis_tilt	pelvis_list	pelvis_rotation	pelvis_tx	pelvis_ty	pelvis_tz	hip_flexion_r	hip_adduction_r	hip_rotation_r	knee_angle_r	ankle_angle_r	subtalar_angle_r	mtp_angle_r	hip_flexion_l	hip_adduction_l	hip_rotation_l	knee_angle_l	ankle_angle_l	subtalar_angle_l	mtp_angle_l	lumbar_extension	lumbar_bending	lumbar_rotation
      0.45400000	     -3.39494464	      5.50953191	     -0.44655853	     -0.72174494	      1.00747541	      0.27194388	     20.57083557	     -4.46758074	      1.78133188	     -3.01145343	      7.47116554	     -3.11058235	      0.30908657	     -7.11127660	     10.59716972	      7.99705085	    -15.41242409	      5.75042034	    -12.26263186	      0.53769988	    -10.70359223	      1.49198593	     -6.99297399
      0.45816667	     -3.41329794	      5.45039623	     -0.42399637	     -0.71632419	      1.00686888	      0.27214085	     20.51614870	     -4.32623143	      1.90765126	     -3.06253555	      7.30596546	     -2.86067644	      0.44195729	     -7.14760673	     10.49915934	      7.79006935	    -15.95522088	      5.82305645	    -11.84098663	      0.83065916	    -10.67828109	      1.54760391	     -6.78667411
      0.46233333	     -3.44054204	      5.38648307	     -0.40818271	     -0.71088496	      1.00626297	      0.27236573	     20.46717089	     -4.17647507	      2.10531140	     -3.17381857	      7.08127288	     -2.73745593	      0.59739531	     -7.15366205	     10.38929923	      7.53150108	    -16.53066959	      5.88201195	    -11.35732893	      1.21215766	    -10.61497587	      1.64913783	     -6.77925448
      0.46650000	     -3.45826527	      5.30307092	     -0.40760772	     -0.70542119	      1.00565247	      0.27262139	     20.42560826	     -4.00137469	      2.30890511	     -3.38386830	      6.83356846	     -2.63574119	      0.77850279	     -7.15986853	     10.25716455	      7.25661187	    -17.12482694	      5.92479057	    -10.87750179	      1.68881029	    -10.57666159	      1.75101148	     -6.70438155
      0.47066667	     -3.48536885	      5.21988554	     -0.41935273	     -0.69991945	      1.00504903	      0.27289348	     20.39265033	     -3.82313579	      2.56057853	     -3.64288016	      6.48665859	     -2.65265120	      2.47980736	     -7.16458672	     10.13005452	      7.02025907	    -17.68625717	      5.76868408	    -10.61555208	      6.35335343	    -10.51072753	      1.87072827	     -6.66552353
      0.47483333	     -3.44871084	      5.11377175	     -0.43184354	     -0.69438689	      1.00453190	      0.27316437	     20.31808986	     -3.62614839	      2.73003346	     -4.02318964	      6.26750732	     -2.51767747	      2.51126615	     -7.21243374	      9.97020774	      6.73005199	    -18.30547979	      5.74705307	    -10.12645241	      6.43043866	    -10.52629644	      2.01244079	     -6.60132453
      0.47900000	     -3.47838122	      5.01029606	     -0.45520245	     -0.68885321	      1.00389462	      0.27347148	     20.32751483	     -3.42359299	      2.96535551	     -4.46791308	      5.99091772	     -2.51801706	      2.55189811	     -7.16414782	      9.81150998	      6.41460662	    -18.97576756	      5.72025551	     -9.63988716	      6.57500498	    -10.45554304	      2.15705900	     -6.52857149
      0.48316667	     -3.45579826	      4.88206005	     -0.48430716	     -0.68327781	      1.00334421	      0.27381388	     20.28079351	     -3.19463357	      3.18800932	     -4.95834671	      5.70521837	     -2.55458049	      2.61069908	     -7.15497698	      9.61657343	      6.05501622	    -19.67115186	      5.67894019	     -9.09492566	      6.82615524	    -10.45160792	      2.30917464	     -6.45476829
      0.48733333	     -3.46516968	      4.74491318	     -0.52476528	     -0.67768672	      1.00274258	      0.27418663	     20.26793078	     -2.94911527	      3.47447591	     -5.47576663	      5.37024537	     -2.76345744	      3.37800767	     -7.09473341	      9.41241070	      5.69492949	    -20.38601767	      5.49971402	     -8.69104475	     10.35828108	    -10.40031570	      2.48379470	     -6.39066321
